<svg xmlns="http://www.w3.org/2000/svg" viewBox="0 0 770 126" width="770" height="126" role="img" aria-label="dw-skills">
  <title>dw-skills</title>
  <rect x="70" y="14" width="12" height="12" fill="#161616"/>
  <rect x="70" y="28" width="12" height="12" fill="#161616"/>
  <rect x="70" y="42" width="12" height="12" fill="#161616"/>
  <rect x="28" y="56" width="12" height="12" fill="#161616"/>
  <rect x="42" y="56" width="12" height="12" fill="#161616"/>
  <rect x="56" y="56" width="12" height="12" fill="#161616"/>
  <rect x="70" y="56" width="12" height="12" fill="#161616"/>
  <rect x="14" y="70" width="12" height="12" fill="#161616"/>
  <rect x="70" y="70" width="12" height="12" fill="#161616"/>
  <rect x="14" y="84" width="12" height="12" fill="#161616"/>
  <rect x="70" y="84" width="12" height="12" fill="#161616"/>
  <rect x="28" y="98" width="12" height="12" fill="#161616"/>
  <rect x="42" y="98" width="12" height="12" fill="#161616"/>
  <rect x="56" y="98" width="12" height="12" fill="#161616"/>
  <rect x="70" y="98" width="12" height="12" fill="#161616"/>
  <rect x="98" y="42" width="12" height="12" fill="#161616"/>
  <rect x="154" y="42" width="12" height="12" fill="#161616"/>
  <rect x="98" y="56" width="12" height="12" fill="#161616"/>
  <rect x="154" y="56" width="12" height="12" fill="#161616"/>
  <rect x="98" y="70" width="12" height="12" fill="#161616"/>
  <rect x="126" y="70" width="12" height="12" fill="#161616"/>
  <rect x="154" y="70" width="12" height="12" fill="#161616"/>
  <rect x="98" y="84" width="12" height="12" fill="#161616"/>
  <rect x="126" y="84" width="12" height="12" fill="#161616"/>
  <rect x="154" y="84" width="12" height="12" fill="#161616"/>
  <rect x="112" y="98" width="12" height="12" fill="#161616"/>
  <rect x="140" y="98" width="12" height="12" fill="#161616"/>
  <rect x="196" y="56" width="12" height="12" fill="#6a6a6a"/>
  <rect x="210" y="56" width="12" height="12" fill="#6a6a6a"/>
  <rect x="224" y="56" width="12" height="12" fill="#6a6a6a"/>
  <rect x="280" y="42" width="12" height="12" fill="#6a6a6a"/>
  <rect x="294" y="42" width="12" height="12" fill="#6a6a6a"/>
  <rect x="308" y="42" width="12" height="12" fill="#6a6a6a"/>
  <rect x="322" y="42" width="12" height="12" fill="#6a6a6a"/>
  <rect x="266" y="56" width="12" height="12" fill="#6a6a6a"/>
  <rect x="280" y="70" width="12" height="12" fill="#6a6a6a"/>
  <rect x="294" y="70" width="12" height="12" fill="#6a6a6a"/>
  <rect x="308" y="70" width="12" height="12" fill="#6a6a6a"/>
  <rect x="322" y="84" width="12" height="12" fill="#6a6a6a"/>
  <rect x="266" y="98" width="12" height="12" fill="#6a6a6a"/>
  <rect x="280" y="98" width="12" height="12" fill="#6a6a6a"/>
  <rect x="294" y="98" width="12" height="12" fill="#6a6a6a"/>
  <rect x="308" y="98" width="12" height="12" fill="#6a6a6a"/>
  <rect x="350" y="14" width="12" height="12" fill="#6a6a6a"/>
  <rect x="350" y="28" width="12" height="12" fill="#6a6a6a"/>
  <rect x="350" y="42" width="12" height="12" fill="#6a6a6a"/>
  <rect x="392" y="42" width="12" height="12" fill="#6a6a6a"/>
  <rect x="350" y="56" width="12" height="12" fill="#6a6a6a"/>
  <rect x="378" y="56" width="12" height="12" fill="#6a6a6a"/>
  <rect x="350" y="70" width="12" height="12" fill="#6a6a6a"/>
  <rect x="364" y="70" width="12" height="12" fill="#6a6a6a"/>
  <rect x="350" y="84" width="12" height="12" fill="#6a6a6a"/>
  <rect x="378" y="84" width="12" height="12" fill="#6a6a6a"/>
  <rect x="350" y="98" width="12" height="12" fill="#6a6a6a"/>
  <rect x="392" y="98" width="12" height="12" fill="#6a6a6a"/>
  <rect x="462" y="14" width="12" height="12" fill="#6a6a6a"/>
  <rect x="462" y="42" width="12" height="12" fill="#6a6a6a"/>
  <rect x="462" y="56" width="12" height="12" fill="#6a6a6a"/>
  <rect x="462" y="70" width="12" height="12" fill="#6a6a6a"/>
  <rect x="462" y="84" width="12" height="12" fill="#6a6a6a"/>
  <rect x="462" y="98" width="12" height="12" fill="#6a6a6a"/>
  <rect x="532" y="14" width="12" height="12" fill="#6a6a6a"/>
  <rect x="532" y="28" width="12" height="12" fill="#6a6a6a"/>
  <rect x="532" y="42" width="12" height="12" fill="#6a6a6a"/>
  <rect x="532" y="56" width="12" height="12" fill="#6a6a6a"/>
  <rect x="532" y="70" width="12" height="12" fill="#6a6a6a"/>
  <rect x="532" y="84" width="12" height="12" fill="#6a6a6a"/>
  <rect x="532" y="98" width="12" height="12" fill="#6a6a6a"/>
  <rect x="616" y="14" width="12" height="12" fill="#6a6a6a"/>
  <rect x="616" y="28" width="12" height="12" fill="#6a6a6a"/>
  <rect x="616" y="42" width="12" height="12" fill="#6a6a6a"/>
  <rect x="616" y="56" width="12" height="12" fill="#6a6a6a"/>
  <rect x="616" y="70" width="12" height="12" fill="#6a6a6a"/>
  <rect x="616" y="84" width="12" height="12" fill="#6a6a6a"/>
  <rect x="616" y="98" width="12" height="12" fill="#6a6a6a"/>
  <rect x="700" y="42" width="12" height="12" fill="#6a6a6a"/>
  <rect x="714" y="42" width="12" height="12" fill="#6a6a6a"/>
  <rect x="728" y="42" width="12" height="12" fill="#6a6a6a"/>
  <rect x="742" y="42" width="12" height="12" fill="#6a6a6a"/>
  <rect x="686" y="56" width="12" height="12" fill="#6a6a6a"/>
  <rect x="700" y="70" width="12" height="12" fill="#6a6a6a"/>
  <rect x="714" y="70" width="12" height="12" fill="#6a6a6a"/>
  <rect x="728" y="70" width="12" height="12" fill="#6a6a6a"/>
  <rect x="742" y="84" width="12" height="12" fill="#6a6a6a"/>
  <rect x="686" y="98" width="12" height="12" fill="#6a6a6a"/>
  <rect x="700" y="98" width="12" height="12" fill="#6a6a6a"/>
  <rect x="714" y="98" width="12" height="12" fill="#6a6a6a"/>
  <rect x="728" y="98" width="12" height="12" fill="#6a6a6a"/>
</svg>
